<?xml version="1.0" encoding="utf-8"?>
<!-- Generator: Adobe Illustrator 26.3.1, SVG Export Plug-In . SVG Version: 6.00 Build 0)  -->
<svg version="1.1" id="Layer_1" xmlns="http://www.w3.org/2000/svg" xmlns:xlink="http://www.w3.org/1999/xlink" x="0px" y="0px"
	 viewBox="0 0 94 26" style="enable-background:new 0 0 94 26;" xml:space="preserve">
<style type="text/css">
	.st0{fill:#FFFFFF;}
</style>
<path id="background" d="M3.82,0h86.36C92.29,0,94,1.71,94,3.82v18.36c0,2.11-1.71,3.82-3.82,3.82H3.82C1.71,26,0,24.29,0,22.18
	V3.82C0,1.71,1.71,0,3.82,0z"/>
<g id="Page-1">
	<g id="Artboard-1" transform="translate(-461 -850)">
		<g id="App-Store" transform="translate(462 850)">
			<g id="icon" transform="translate(130 88)">
				<path id="Fill-2" class="st0" d="M-110.42-75.72c-0.02-2.28,1.86-3.39,1.95-3.44c-1.07-1.55-2.72-1.77-3.3-1.79
					c-1.39-0.15-2.74,0.83-3.44,0.83c-0.72,0-1.81-0.81-2.98-0.8c-1.51,0.03-2.93,0.9-3.7,2.26c-1.6,2.77-0.41,6.84,1.13,9.08
					c0.77,1.09,1.66,2.32,2.84,2.28c1.15-0.04,1.58-0.73,2.96-0.73c1.37,0,1.78,0.73,2.97,0.71c1.23-0.02,2-1.1,2.75-2.21
					c0.88-1.25,1.24-2.49,1.25-2.56C-108.04-72.1-110.4-73-110.42-75.72"/>
				<path id="Fill-3" class="st0" d="M-112.68-82.42c0.62-0.77,1.04-1.82,0.92-2.89c-0.89,0.04-2.01,0.62-2.65,1.37
					c-0.57,0.67-1.08,1.76-0.95,2.78C-114.36-81.08-113.33-81.66-112.68-82.42"/>
			</g>
			<g transform="translate(459 218)">
				<path id="Fill-4" class="st0" d="M-422.8-197.45h-1.6l-0.88-2.76h-3.05l-0.83,2.76h-1.56l3.02-9.4h1.87L-422.8-197.45
					L-422.8-197.45z M-425.54-201.37l-0.8-2.45c-0.08-0.25-0.24-0.84-0.47-1.77h-0.03c-0.1,0.4-0.24,0.99-0.45,1.77l-0.78,2.45
					H-425.54z"/>
				<path id="Fill-5" class="st0" d="M-415.03-200.92c0,1.15-0.31,2.06-0.94,2.73c-0.56,0.6-1.26,0.89-2.09,0.89
					c-0.9,0-1.54-0.32-1.93-0.96v3.56h-1.51v-7.3c0-0.73-0.02-1.46-0.06-2.23h1.32l0.08,1.08h0.03c0.5-0.81,1.27-1.22,2.28-1.22
					c0.8,0,1.46,0.32,2,0.95C-415.3-202.78-415.03-201.96-415.03-200.92L-415.03-200.92z M-416.56-200.87c0-0.66-0.15-1.2-0.45-1.63
					c-0.32-0.45-0.76-0.67-1.31-0.67c-0.37,0-0.71,0.13-1.01,0.37c-0.3,0.25-0.5,0.57-0.59,0.97c-0.04,0.18-0.07,0.34-0.07,0.46
					v1.13c0,0.49,0.15,0.91,0.45,1.25c0.3,0.34,0.69,0.51,1.18,0.51c0.57,0,1.01-0.22,1.32-0.66
					C-416.72-199.58-416.56-200.15-416.56-200.87L-416.56-200.87z"/>
				<path id="Fill-6" class="st0" d="M-407.24-200.92c0,1.15-0.31,2.06-0.94,2.73c-0.56,0.6-1.26,0.89-2.09,0.89
					c-0.9,0-1.54-0.32-1.93-0.96v3.56h-1.51v-7.3c0-0.73-0.02-1.46-0.06-2.23h1.32l0.08,1.08h0.03c0.5-0.81,1.27-1.22,2.28-1.22
					c0.8,0,1.46,0.32,2,0.95C-407.51-202.78-407.24-201.96-407.24-200.92L-407.24-200.92z M-408.77-200.87
					c0-0.66-0.15-1.2-0.45-1.63c-0.32-0.45-0.76-0.67-1.31-0.67c-0.37,0-0.71,0.13-1.01,0.37c-0.3,0.25-0.5,0.57-0.59,0.97
					c-0.04,0.18-0.07,0.34-0.07,0.46v1.13c0,0.49,0.15,0.91,0.45,1.25c0.3,0.34,0.69,0.51,1.18,0.51c0.57,0,1.01-0.22,1.32-0.66
					C-408.93-199.58-408.77-200.15-408.77-200.87L-408.77-200.87z"/>
				<path id="Fill-7" class="st0" d="M-398.52-200.09c0,0.8-0.28,1.45-0.83,1.95c-0.61,0.55-1.46,0.82-2.56,0.82
					c-1.01,0-1.82-0.2-2.43-0.59l0.35-1.25c0.66,0.39,1.39,0.59,2.18,0.59c0.57,0,1.01-0.13,1.32-0.38c0.32-0.25,0.48-0.6,0.48-1.02
					c0-0.38-0.13-0.7-0.39-0.96c-0.26-0.26-0.69-0.5-1.3-0.73c-1.66-0.62-2.48-1.51-2.48-2.69c0-0.77,0.29-1.4,0.87-1.9
					c0.58-0.49,1.35-0.74,2.31-0.74c0.85,0,1.57,0.15,2.13,0.45l-0.38,1.22c-0.53-0.29-1.13-0.43-1.81-0.43
					c-0.53,0-0.95,0.13-1.25,0.39c-0.25,0.24-0.38,0.52-0.38,0.85c0,0.37,0.15,0.68,0.43,0.92c0.25,0.22,0.71,0.46,1.37,0.73
					c0.81,0.32,1.4,0.71,1.78,1.15C-398.71-201.28-398.52-200.74-398.52-200.09"/>
				<path id="Fill-8" class="st0" d="M-393.53-203.1h-1.66v3.29c0,0.83,0.29,1.25,0.88,1.25c0.27,0,0.49-0.03,0.67-0.07l0.04,1.15
					c-0.3,0.11-0.69,0.17-1.17,0.17c-0.6,0-1.06-0.18-1.39-0.55c-0.34-0.36-0.5-0.97-0.5-1.83v-3.42h-0.99v-1.13h0.99v-1.24
					l1.48-0.45v1.69h1.66L-393.53-203.1"/>
				<path id="Fill-9" class="st0" d="M-386.06-200.89c0,1.04-0.3,1.9-0.89,2.56c-0.62,0.69-1.45,1.03-2.48,1.03
					c-0.99,0-1.79-0.33-2.38-0.99s-0.88-1.49-0.88-2.49c0-1.05,0.31-1.91,0.91-2.58c0.61-0.67,1.43-1.01,2.46-1.01
					c0.99,0,1.79,0.33,2.4,0.99C-386.35-202.73-386.06-201.91-386.06-200.89L-386.06-200.89z M-387.62-200.86
					c0-0.62-0.13-1.15-0.4-1.6c-0.32-0.54-0.77-0.81-1.36-0.81c-0.6,0-1.07,0.27-1.38,0.81c-0.27,0.45-0.4,0.99-0.4,1.63
					c0,0.62,0.13,1.16,0.4,1.6c0.32,0.54,0.78,0.81,1.37,0.81c0.57,0,1.02-0.27,1.36-0.82
					C-387.76-199.7-387.62-200.24-387.62-200.86z"/>
				<path id="Fill-10" class="st0" d="M-381.16-202.91c-0.15-0.03-0.31-0.04-0.48-0.04c-0.53,0-0.94,0.2-1.23,0.6
					c-0.25,0.35-0.38,0.8-0.38,1.34v3.56h-1.51v-4.65c0-0.78-0.01-1.5-0.04-2.13h1.31l0.06,1.3h0.04c0.16-0.45,0.41-0.81,0.75-1.08
					c0.34-0.24,0.7-0.36,1.09-0.36c0.14,0,0.27,0.01,0.38,0.03L-381.16-202.91"/>
				<path id="Fill-11" class="st0" d="M-374.43-201.16c0,0.27-0.02,0.5-0.06,0.68H-379c0.02,0.67,0.24,1.18,0.66,1.53
					c0.38,0.31,0.87,0.47,1.48,0.47c0.67,0,1.28-0.11,1.83-0.32l0.24,1.04c-0.64,0.28-1.4,0.42-2.27,0.42
					c-1.05,0-1.88-0.31-2.48-0.93s-0.9-1.45-0.9-2.49c0-1.02,0.28-1.87,0.84-2.55c0.59-0.73,1.37-1.09,2.37-1.09
					c0.97,0,1.72,0.36,2.21,1.09C-374.63-202.71-374.43-202.01-374.43-201.16L-374.43-201.16z M-375.86-201.55
					c0.01-0.45-0.09-0.83-0.29-1.16c-0.26-0.42-0.66-0.63-1.2-0.63c-0.49,0-0.89,0.2-1.2,0.61c-0.25,0.32-0.4,0.72-0.45,1.17
					L-375.86-201.55L-375.86-201.55z"/>
			</g>
			<g id="Available-on-the" transform="translate(468 91)">
				<path id="Fill-12" class="st0" d="M-435.27-83.21h-0.79l-0.43-1.36h-1.5l-0.41,1.36h-0.76l1.48-4.62h0.92L-435.27-83.21z
					 M-436.63-85.14l-0.39-1.21c-0.04-0.12-0.11-0.41-0.24-0.87h-0.01c-0.05,0.2-0.11,0.48-0.22,0.87l-0.38,1.21H-436.63z"/>
				<path id="Fill-13" class="st0" d="M-431.55-86.55l-1.26,3.33h-0.72l-1.22-3.33h0.8l0.57,1.76c0.1,0.29,0.18,0.57,0.24,0.84h0.02
					c0.06-0.24,0.14-0.52,0.24-0.84l0.56-1.76H-431.55"/>
				<path id="Fill-14" class="st0" d="M-428.87-83.21l-0.06-0.38h-0.02c-0.23,0.31-0.55,0.46-0.97,0.46c-0.6,0-1.02-0.42-1.02-0.98
					c0-0.82,0.71-1.25,1.95-1.25v-0.06c0-0.44-0.24-0.66-0.69-0.66c-0.33,0-0.62,0.08-0.87,0.25l-0.15-0.48
					c0.31-0.19,0.69-0.29,1.15-0.29c0.87,0,1.31,0.46,1.31,1.38v1.23c0,0.34,0.01,0.6,0.05,0.8L-428.87-83.21L-428.87-83.21z
					 M-428.97-84.87c-0.82,0-1.23,0.2-1.23,0.67c0,0.35,0.21,0.52,0.51,0.52c0.38,0,0.73-0.29,0.73-0.68v-0.51H-428.97z"/>
				<path id="Fill-15" class="st0" d="M-426.6-87.09c-0.25,0-0.44-0.19-0.44-0.45s0.2-0.44,0.45-0.44s0.46,0.18,0.45,0.44
					C-426.14-87.27-426.33-87.09-426.6-87.09L-426.6-87.09z M-426.96-86.55h0.74v3.33h-0.74V-86.55z"/>
				<path id="Fill-16" class="st0" d="M-424.9-88.07h0.74v4.86h-0.74V-88.07z"/>
				<path id="Fill-17" class="st0" d="M-421.02-83.21l-0.06-0.38h-0.02c-0.23,0.31-0.55,0.46-0.97,0.46c-0.6,0-1.02-0.42-1.02-0.98
					c0-0.82,0.71-1.25,1.95-1.25v-0.06c0-0.44-0.24-0.66-0.69-0.66c-0.33,0-0.62,0.08-0.87,0.25l-0.15-0.49
					c0.31-0.19,0.69-0.29,1.15-0.29c0.87,0,1.31,0.46,1.31,1.38V-84c0,0.34,0.01,0.6,0.04,0.8L-421.02-83.21L-421.02-83.21
					L-421.02-83.21z M-421.12-84.87c-0.82,0-1.23,0.2-1.23,0.67c0,0.35,0.21,0.52,0.51,0.52c0.38,0,0.73-0.29,0.73-0.68v-0.51
					H-421.12z"/>
				<path id="Fill-18" class="st0" d="M-417.4-83.14c-0.47,0-0.82-0.2-1.05-0.59h-0.01l-0.04,0.52h-0.63
					c0.02-0.27,0.03-0.57,0.03-0.9v-3.96h0.74v2.02h0.01c0.22-0.37,0.57-0.55,1.06-0.55c0.8,0,1.36,0.69,1.36,1.69
					C-415.93-83.89-416.55-83.14-417.4-83.14z M-417.55-86.03c-0.43,0-0.81,0.37-0.81,0.88v0.59c0,0.46,0.35,0.83,0.8,0.83
					c0.55,0,0.88-0.45,0.88-1.17C-416.68-85.57-417.02-86.03-417.55-86.03z"/>
				<path id="Fill-19" class="st0" d="M-414.83-88.07h0.74v4.86h-0.74V-88.07z"/>
				<path id="Fill-20" class="st0" d="M-410.07-84.7h-2.22c0.01,0.63,0.43,0.99,1.05,0.99c0.33,0,0.63-0.06,0.9-0.16l0.11,0.52
					c-0.31,0.14-0.68,0.2-1.11,0.2c-1.04,0-1.66-0.66-1.66-1.68s0.63-1.79,1.58-1.79c0.85,0,1.39,0.63,1.39,1.58
					C-410.04-84.9-410.04-84.79-410.07-84.7L-410.07-84.7z M-410.74-85.23c0-0.52-0.26-0.88-0.73-0.88c-0.43,0-0.76,0.37-0.81,0.88
					H-410.74z"/>
				<path id="Fill-21" class="st0" d="M-405.58-83.14c-0.97,0-1.6-0.73-1.6-1.71c0-1.03,0.64-1.76,1.66-1.76
					c0.96,0,1.6,0.69,1.6,1.71C-403.92-83.87-404.58-83.14-405.58-83.14z M-405.55-86.07c-0.53,0-0.88,0.5-0.88,1.2
					c0,0.69,0.35,1.18,0.87,1.18s0.87-0.53,0.87-1.2C-404.69-85.57-405.03-86.07-405.55-86.07L-405.55-86.07z"/>
				<path id="Fill-22" class="st0" d="M-399.94-83.21h-0.74v-1.92c0-0.59-0.23-0.88-0.67-0.88s-0.74,0.38-0.74,0.81v1.98h-0.74
					v-2.37c0-0.29-0.01-0.61-0.03-0.95h0.65l0.03,0.52h0.02c0.2-0.36,0.6-0.59,1.06-0.59c0.7,0,1.16,0.53,1.16,1.41V-83.21"/>
				<path id="Fill-23" class="st0" d="M-395.1-85.99h-0.81v1.62c0,0.41,0.15,0.62,0.43,0.62c0.13,0,0.24-0.01,0.33-0.03l0.02,0.56
					c-0.15,0.06-0.34,0.08-0.57,0.08c-0.59,0-0.93-0.32-0.93-1.16v-1.68h-0.48v-0.55h0.48v-0.61l0.73-0.22v0.83h0.81L-395.1-85.99"
					/>
				<path id="Fill-24" class="st0" d="M-391.18-83.21h-0.74v-1.9c0-0.6-0.23-0.9-0.67-0.9c-0.38,0-0.74,0.26-0.74,0.79v2h-0.74
					v-4.86h0.74v2h0.01c0.24-0.36,0.57-0.54,1-0.54c0.71,0,1.14,0.55,1.14,1.42L-391.18-83.21"/>
				<path id="Fill-25" class="st0" d="M-387.4-84.7h-2.22c0.01,0.63,0.43,0.99,1.05,0.99c0.33,0,0.63-0.06,0.9-0.16l0.11,0.52
					c-0.31,0.14-0.68,0.2-1.11,0.2c-1.04,0-1.66-0.66-1.66-1.68s0.63-1.79,1.58-1.79c0.85,0,1.39,0.63,1.39,1.58
					C-387.37-84.9-387.37-84.79-387.4-84.7z M-388.07-85.23c0-0.52-0.26-0.88-0.73-0.88c-0.43,0-0.76,0.37-0.81,0.88H-388.07z"/>
			</g>
		</g>
	</g>
</g>
</svg>
