<?xml version="1.0" encoding="utf-8"?>
<!-- Generator: Adobe Illustrator 26.3.1, SVG Export Plug-In . SVG Version: 6.00 Build 0)  -->
<svg version="1.1" id="Layer_2_00000180368309975735434590000007122968837992901818_"
	 xmlns="http://www.w3.org/2000/svg" xmlns:xlink="http://www.w3.org/1999/xlink" x="0px" y="0px" viewBox="0 0 94 26"
	 style="enable-background:new 0 0 94 26;" xml:space="preserve">
<style type="text/css">
	.st0{fill-rule:evenodd;clip-rule:evenodd;fill:url(#path1192_00000036966881227872809570000010374480977465838978_);}
	.st1{fill-rule:evenodd;clip-rule:evenodd;fill:url(#path1203_00000010302377353368239070000000642370222773098147_);}
	.st2{fill-rule:evenodd;clip-rule:evenodd;fill:url(#path1210_00000101798295329363101100000013308035345486361987_);}
	.st3{fill-rule:evenodd;clip-rule:evenodd;fill:url(#path1223_00000127033595714870010150000013652904764584928959_);}
	.st4{opacity:0.2;fill-rule:evenodd;clip-rule:evenodd;enable-background:new    ;}
	.st5{opacity:0.12;fill-rule:evenodd;clip-rule:evenodd;enable-background:new    ;}
	.st6{opacity:0.25;fill-rule:evenodd;clip-rule:evenodd;fill:#FFFFFF;enable-background:new    ;}
	.st7{fill-rule:evenodd;clip-rule:evenodd;fill:#FFFFFF;}
</style>
<path id="background" d="M3.82,0h86.36C92.29,0,94,1.71,94,3.82v18.36c0,2.11-1.71,3.82-3.82,3.82H3.82C1.71,26,0,24.29,0,22.18
	V3.82C0,1.71,1.71,0,3.82,0z"/>
<g>
	<g id="g1231" transform="translate(0 -.008)">
		
			<linearGradient id="path1192_00000042007961662563267530000010897116240275685810_" gradientUnits="userSpaceOnUse" x1="3527.0229" y1="1115.3586" x2="3518.1965" y2="1110.8025" gradientTransform="matrix(1.3204 0 0 -2.558 -4640.0518 2858.238)">
			<stop  offset="0" style="stop-color:#00A0FF"/>
			<stop  offset="7.000001e-03" style="stop-color:#00A1FF"/>
			<stop  offset="0.26" style="stop-color:#00BEFF"/>
			<stop  offset="0.512" style="stop-color:#00D2FF"/>
			<stop  offset="0.76" style="stop-color:#00DFFF"/>
			<stop  offset="1" style="stop-color:#00E3FF"/>
		</linearGradient>
		
			<path id="path1192" style="fill-rule:evenodd;clip-rule:evenodd;fill:url(#path1192_00000042007961662563267530000010897116240275685810_);" d="
			M9.13,4.35C8.93,4.57,8.81,4.9,8.81,5.33v15.35c0,0.43,0.12,0.76,0.32,0.97l0.05,0.05l8.6-8.6v-0.19l-8.61-8.6
			C9.19,4.3,9.13,4.35,9.13,4.35z"/>
		
			<linearGradient id="path1203_00000063629708111203183930000007985925465727774631_" gradientUnits="userSpaceOnUse" x1="3791.7979" y1="387.295" x2="3775.5999" y2="387.295" gradientTransform="matrix(1.0374 0 0 -0.8735 -3908.1321 351.3122)">
			<stop  offset="0" style="stop-color:#FFE000"/>
			<stop  offset="0.409" style="stop-color:#FFBD00"/>
			<stop  offset="0.775" style="stop-color:#FFA500"/>
			<stop  offset="1" style="stop-color:#FF9C00"/>
		</linearGradient>
		
			<path id="path1203" style="fill-rule:evenodd;clip-rule:evenodd;fill:url(#path1203_00000063629708111203183930000007985925465727774631_);" d="
			M20.66,15.98l-2.87-2.87v-0.2l2.87-2.87l0.06,0.04l3.4,1.93c0.97,0.55,0.97,1.45,0,2.01l-3.4,1.93
			C20.72,15.94,20.66,15.98,20.66,15.98L20.66,15.98z"/>
		
			<linearGradient id="path1210_00000024690412533735660530000005872676401781548673_" gradientUnits="userSpaceOnUse" x1="3315.447" y1="755.2898" x2="3306.1711" y2="743.256" gradientTransform="matrix(1.7038 0 0 -1.3133 -5629.7515 1006.5452)">
			<stop  offset="0" style="stop-color:#FF3A44"/>
			<stop  offset="1" style="stop-color:#C31162"/>
		</linearGradient>
		
			<path id="path1210" style="fill-rule:evenodd;clip-rule:evenodd;fill:url(#path1210_00000024690412533735660530000005872676401781548673_);" d="
			M20.72,15.94l-2.93-2.93l-8.66,8.66c0.32,0.34,0.85,0.38,1.44,0.05L20.72,15.94"/>
		
			<linearGradient id="path1223_00000116951298987428016750000016538262933900479874_" gradientUnits="userSpaceOnUse" x1="3308.3086" y1="765.632" x2="3312.4504" y2="760.2554" gradientTransform="matrix(1.7038 0 0 -1.3126 -5629.7515 1004.2076)">
			<stop  offset="0" style="stop-color:#32A071"/>
			<stop  offset="0.069" style="stop-color:#2DA771"/>
			<stop  offset="0.476" style="stop-color:#15CF74"/>
			<stop  offset="0.801" style="stop-color:#06E775"/>
			<stop  offset="1" style="stop-color:#00F076"/>
		</linearGradient>
		
			<path id="path1223" style="fill-rule:evenodd;clip-rule:evenodd;fill:url(#path1223_00000116951298987428016750000016538262933900479874_);" d="
			M20.72,10.08L10.58,4.31c-0.6-0.34-1.13-0.29-1.45,0.05l8.66,8.65L20.72,10.08z"/>
		<path id="path1225" class="st4" d="M20.66,15.88l-10.08,5.73c-0.56,0.32-1.07,0.3-1.39,0.01l-0.05,0.05l0.05,0.05
			c0.32,0.29,0.83,0.32,1.39-0.01l10.15-5.76L20.66,15.88z"/>
		<path id="path1227" class="st5" d="M24.12,13.91l-3.46,1.97l0.06,0.06l3.4-1.93c0.49-0.28,0.73-0.64,0.73-1
			C24.81,13.34,24.56,13.66,24.12,13.91L24.12,13.91z"/>
		<path id="path1229" class="st6" d="M10.58,4.41l13.54,7.69c0.44,0.25,0.69,0.57,0.73,0.9c0-0.36-0.24-0.73-0.73-1L10.58,4.31
			C9.61,3.76,8.82,4.22,8.82,5.33v0.1C8.82,4.32,9.61,3.86,10.58,4.41z"/>
	</g>
	<g id="g1237" transform="translate(0 -.008)">
		<path id="path1233" class="st7" d="M28.15,12.52c0-2.46,2.07-4.46,4.53-4.46c1.36,0,2.33,0.53,3.06,1.23l-0.86,0.86
			c-0.52-0.49-1.23-0.87-2.2-0.87c-1.8,0-3.2,1.45-3.2,3.24s1.4,3.24,3.2,3.24c1.16,0,1.83-0.47,2.25-0.89
			c0.35-0.35,0.58-0.85,0.66-1.53h-2.91v-1.22h4.1c0.04,0.22,0.07,0.48,0.07,0.76c0,0.91-0.25,2.05-1.06,2.85
			C35,16.55,34,16.98,32.68,16.98C30.22,16.98,28.15,14.98,28.15,12.52L28.15,12.52z M40.16,11.24c-1.59,0-2.89,1.21-2.89,2.87
			s1.3,2.87,2.89,2.87s2.88-1.22,2.88-2.87C43.05,12.44,41.75,11.24,40.16,11.24z M40.16,15.85c-0.87,0-1.62-0.72-1.62-1.74
			c0-1.03,0.75-1.74,1.62-1.74s1.62,0.71,1.62,1.74C41.78,15.13,41.03,15.85,40.16,15.85z M46.45,11.24c-1.59,0-2.88,1.21-2.88,2.87
			s1.3,2.87,2.88,2.87s2.88-1.22,2.88-2.87C49.34,12.44,48.04,11.24,46.45,11.24L46.45,11.24z M46.45,15.85
			c-0.87,0-1.62-0.72-1.62-1.74c0-1.03,0.75-1.74,1.62-1.74s1.62,0.71,1.62,1.74C48.08,15.13,47.32,15.85,46.45,15.85L46.45,15.85z
			 M54.18,11.41v0.47h-0.04c-0.28-0.34-0.83-0.64-1.51-0.64c-1.44,0-2.76,1.26-2.76,2.89c0,1.61,1.32,2.86,2.76,2.86
			c0.69,0,1.23-0.3,1.51-0.65h0.04v0.41c0,1.1-0.59,1.69-1.53,1.69c-0.77,0-1.25-0.56-1.45-1.02l-1.1,0.46
			c0.32,0.76,1.15,1.7,2.55,1.7c1.48,0,2.73-0.87,2.73-2.99v-5.16L54.18,11.41z M52.73,15.85c-0.87,0-1.6-0.73-1.6-1.73
			c0-1.01,0.73-1.75,1.6-1.75c0.86,0,1.53,0.74,1.53,1.75C54.26,15.12,53.59,15.85,52.73,15.85z M56.24,8.36h1.26v8.45h-1.26V8.36z
			 M60.97,15.85c-0.64,0-1.1-0.29-1.39-0.87l3.84-1.59l-0.13-0.33c-0.24-0.64-0.97-1.83-2.46-1.83c-1.48,0-2.71,1.16-2.71,2.87
			c0,1.61,1.22,2.87,2.85,2.87c1.32,0,2.08-0.8,2.39-1.27l-0.98-0.65C62.06,15.54,61.61,15.85,60.97,15.85L60.97,15.85z
			 M60.87,12.35c0.5,0,0.92,0.25,1.07,0.61l-2.57,1.07C59.33,12.91,60.23,12.35,60.87,12.35L60.87,12.35z"/>
		<path id="path1235" class="st7" d="M68.96,8.36h-3.02v8.45h1.26v-3.2h1.76c1.4,0,2.77-1.01,2.77-2.62S70.36,8.36,68.96,8.36
			L68.96,8.36z M68.99,12.43H67.2v-2.9h1.79c0.94,0,1.48,0.78,1.48,1.45C70.47,11.64,69.94,12.43,68.99,12.43z M73.69,16.81V8.36
			h-1.26v8.45H73.69z M79.35,16.79v-3.24c0-1.5-1.12-2.34-2.57-2.34c-0.91,0-1.86,0.4-2.25,1.29l1.12,0.47
			c0.24-0.47,0.68-0.62,1.15-0.62c0.65,0,1.31,0.39,1.32,1.09v0.09c-0.23-0.13-0.72-0.33-1.31-0.33c-1.21,0-2.43,0.66-2.43,1.9
			c0,1.13,0.99,1.86,2.1,1.86c0.85,0,1.31-0.38,1.61-0.82h0.04v0.65H79.35L79.35,16.79z M76.63,15.85c-0.41,0-0.99-0.21-0.99-0.72
			c0-0.65,0.72-0.9,1.34-0.9c0.55,0,0.81,0.12,1.15,0.28C78.04,15.27,77.4,15.84,76.63,15.85L76.63,15.85z M83.78,11.41l-1.45,3.66
			h-0.04l-1.5-3.66h-1.36l2.25,5.12l-1.28,2.85h1.31l3.47-7.96L83.78,11.41L83.78,11.41z"/>
	</g>
</g>
</svg>
