<?xml version="1.0" encoding="utf-8"?>
<!-- Generator: Adobe Illustrator 26.3.1, SVG Export Plug-In . SVG Version: 6.00 Build 0)  -->
<svg version="1.1" id="图层_1" xmlns="http://www.w3.org/2000/svg" xmlns:xlink="http://www.w3.org/1999/xlink" x="0px" y="0px"
	 viewBox="0 0 94 26" style="enable-background:new 0 0 94 26;" xml:space="preserve">
<style type="text/css">
	.st0{fill:#FFFFFF;}
</style>
<path id="background" d="M3.82,0h86.36C92.29,0,94,1.71,94,3.82v18.36c0,2.11-1.71,3.82-3.82,3.82H3.82C1.71,26,0,24.29,0,22.18
	V3.82C0,1.71,1.71,0,3.82,0z"/>
<g>
	<g>
		<path class="st0" d="M13.75,5.72c0.03,0.13,0.05,0.29,0.05,0.48c-0.67,0.29-0.93,0.5-0.92,1.5v0.61L12.42,8.4V7.69
			C12.42,6.22,12.98,5.99,13.75,5.72 M15.09,5.4c0.03,0.14,0.06,0.3,0.07,0.46c1.21-0.17,1.18,0.33,1.18,1.36V7.6l0.46-0.09V7.22
			C16.8,5.61,16.55,5.18,15.09,5.4 M10.34,8.81V6.69C10.33,5.38,11,4.97,12.26,4.68c1.89-0.44,2.01,0.78,2.01,1.55v1.8l0.46-0.09
			V6.27c0-1.47-0.46-2.56-2.56-2.09c-1.13,0.26-2.29,0.55-2.29,2.47v2.26L10.34,8.81z M15.87,14.39h-3.55v-2.57l3.55-0.52V14.39z
			 M15.87,18.02l-3.55-0.52v-2.76h3.55V18.02z M11.96,14.39H9.14v-2.15l2.82-0.4V14.39z M11.96,17.48l-2.82-0.39v-2.34h2.82V17.48z
			 M19.12,7.62l-12.7,2.54v9.24l12.7,2.54l2.54-0.92V8.54L19.12,7.62z"/>
	</g>
	<g>
		<path class="st0" d="M13.75,5.72c0.03,0.13,0.05,0.29,0.05,0.48c-0.67,0.29-0.93,0.5-0.92,1.5v0.61L12.42,8.4V7.69
			C12.42,6.22,12.98,5.99,13.75,5.72 M15.09,5.4c0.03,0.14,0.06,0.3,0.07,0.46c1.21-0.17,1.18,0.33,1.18,1.36V7.6l0.46-0.09V7.22
			C16.8,5.61,16.55,5.18,15.09,5.4 M10.34,8.81V6.69C10.33,5.38,11,4.97,12.26,4.68c1.89-0.44,2.01,0.78,2.01,1.55v1.8l0.46-0.09
			V6.27c0-1.47-0.46-2.56-2.56-2.09c-1.13,0.26-2.29,0.55-2.29,2.47v2.26L10.34,8.81z M15.87,14.39h-3.55v-2.57l3.55-0.52V14.39z
			 M15.87,18.02l-3.55-0.52v-2.76h3.55V18.02z M11.96,14.39H9.14v-2.15l2.82-0.4V14.39z M11.96,17.48l-2.82-0.39v-2.34h2.82V17.48z
			 M19.12,7.62l-12.7,2.54v9.24l12.7,2.54l2.54-0.92V8.54L19.12,7.62z"/>
		<path class="st0" d="M30.27,7.96c0,0.47-0.1,0.89-0.31,1.25s-0.5,0.64-0.88,0.84c-0.38,0.19-0.82,0.29-1.31,0.29h-1.23V5.7h1.28
			C29.45,5.7,30.27,6.45,30.27,7.96 M29.7,7.97c0-1.19-0.63-1.78-1.89-1.78h-0.73v3.66h0.69c0.61,0,1.09-0.16,1.42-0.49
			C29.53,9.03,29.7,8.57,29.7,7.97 M34.13,8.67c0,0.53-0.15,0.95-0.45,1.27c-0.3,0.32-0.7,0.48-1.2,0.48
			c-0.49,0-0.88-0.16-1.17-0.47s-0.44-0.72-0.44-1.23c0-0.55,0.15-0.98,0.45-1.3c0.3-0.32,0.71-0.48,1.24-0.48
			c0.49,0,0.88,0.15,1.16,0.46C33.99,7.71,34.13,8.13,34.13,8.67 M33.58,8.69c0-0.42-0.09-0.74-0.28-0.96
			c-0.18-0.22-0.45-0.33-0.79-0.33S31.9,7.51,31.7,7.74c-0.2,0.23-0.3,0.55-0.3,0.96c0,0.4,0.1,0.71,0.3,0.93
			c0.2,0.22,0.47,0.34,0.81,0.34c0.35,0,0.61-0.11,0.79-0.33C33.49,9.42,33.58,9.1,33.58,8.69 M39.13,7.02l-0.99,3.32h-0.55
			l-0.68-2.37c-0.02-0.08-0.04-0.18-0.05-0.3h-0.01c-0.01,0.08-0.03,0.18-0.07,0.3l-0.74,2.38h-0.53l-1-3.32h0.56l0.68,2.49
			c0.02,0.09,0.04,0.19,0.05,0.3h0.03c0-0.08,0.02-0.18,0.06-0.3l0.76-2.49h0.49l0.69,2.5c0.02,0.08,0.04,0.18,0.04,0.3h0.03
			c0.01-0.1,0.02-0.2,0.05-0.3l0.68-2.5h0.5V7.02z M42.5,10.34h-0.53V8.45c0-0.7-0.26-1.05-0.77-1.05c-0.26,0-0.48,0.1-0.66,0.3
			s-0.26,0.45-0.26,0.76v1.89h-0.53V7.02h0.53v0.55h0.01c0.25-0.42,0.61-0.63,1.09-0.63c0.37,0,0.64,0.12,0.83,0.36
			c0.19,0.24,0.29,0.57,0.29,1.01C42.5,8.31,42.5,10.34,42.5,10.34z M44.03,10.34H43.5V5.43h0.53V10.34z M48.12,8.67
			c0,0.53-0.15,0.95-0.45,1.27c-0.3,0.32-0.7,0.48-1.2,0.48c-0.49,0-0.88-0.16-1.17-0.47c-0.29-0.31-0.44-0.72-0.44-1.23
			c0-0.55,0.15-0.98,0.45-1.3s0.71-0.48,1.24-0.48c0.49,0,0.88,0.15,1.16,0.46C47.98,7.71,48.12,8.13,48.12,8.67 M47.57,8.69
			c0-0.42-0.09-0.74-0.28-0.96C47.11,7.51,46.84,7.4,46.5,7.4s-0.61,0.11-0.81,0.34s-0.3,0.55-0.3,0.96c0,0.4,0.1,0.71,0.3,0.93
			s0.47,0.34,0.81,0.34s0.61-0.11,0.79-0.33C47.48,9.42,47.57,9.1,47.57,8.69 M51.28,10.34h-0.53V9.82h-0.01
			c-0.23,0.4-0.57,0.6-1.02,0.6c-0.32,0-0.58-0.09-0.77-0.26c-0.19-0.18-0.29-0.41-0.29-0.7c0-0.62,0.36-0.98,1.09-1.08l0.99-0.14
			c0-0.56-0.23-0.84-0.68-0.84c-0.4,0-0.76,0.13-1.08,0.4V7.26c0.1-0.07,0.26-0.14,0.5-0.21s0.44-0.1,0.63-0.1
			c0.78,0,1.17,0.41,1.17,1.24V10.34z M50.75,8.66l-0.8,0.11c-0.27,0.04-0.47,0.1-0.58,0.2c-0.11,0.09-0.17,0.24-0.17,0.44
			c0,0.17,0.06,0.3,0.18,0.4c0.12,0.1,0.27,0.15,0.46,0.15c0.26,0,0.48-0.09,0.65-0.28c0.17-0.19,0.26-0.42,0.26-0.7V8.66z
			 M55.09,10.34h-0.53V9.78h-0.01c-0.25,0.43-0.63,0.65-1.14,0.65c-0.42,0-0.75-0.15-1-0.45s-0.37-0.7-0.37-1.21
			c0-0.55,0.14-0.99,0.41-1.32c0.28-0.33,0.64-0.5,1.11-0.5c0.45,0,0.78,0.18,0.99,0.54h0.01V5.43h0.53
			C55.09,5.43,55.09,10.34,55.09,10.34z M54.56,8.84V8.35c0-0.27-0.09-0.5-0.27-0.68s-0.4-0.27-0.67-0.27
			c-0.32,0-0.57,0.12-0.76,0.35c-0.19,0.24-0.28,0.56-0.28,0.98c0,0.38,0.09,0.68,0.27,0.9c0.18,0.22,0.42,0.33,0.72,0.33
			c0.29,0,0.53-0.11,0.72-0.32C54.46,9.44,54.56,9.17,54.56,8.84 M59.35,5.9c-0.1-0.06-0.22-0.09-0.35-0.09
			c-0.37,0-0.56,0.23-0.56,0.7v0.51h0.78v0.45h-0.78v2.87h-0.53V7.47h-0.56V7.02h0.56V6.48c0-0.34,0.1-0.61,0.3-0.81
			c0.2-0.21,0.45-0.31,0.76-0.31c0.16,0,0.29,0.02,0.39,0.06L59.35,5.9L59.35,5.9z M61.51,7.56c-0.1-0.07-0.23-0.11-0.41-0.11
			c-0.23,0-0.43,0.11-0.57,0.33C60.38,8,60.31,8.29,60.31,8.64v1.69h-0.53V7.02h0.53V7.7h0.01c0.07-0.23,0.19-0.41,0.34-0.54
			s0.33-0.2,0.53-0.2c0.14,0,0.24,0.02,0.32,0.04V7.56z M65.02,8.67c0,0.53-0.15,0.95-0.45,1.27c-0.3,0.32-0.7,0.48-1.2,0.48
			c-0.49,0-0.88-0.16-1.17-0.47c-0.29-0.31-0.44-0.72-0.44-1.23c0-0.55,0.15-0.98,0.45-1.3s0.71-0.48,1.24-0.48
			c0.49,0,0.88,0.15,1.16,0.46C64.88,7.71,65.02,8.13,65.02,8.67 M64.47,8.69c0-0.42-0.09-0.74-0.28-0.96S63.74,7.4,63.4,7.4
			s-0.61,0.11-0.81,0.34s-0.3,0.55-0.3,0.96c0,0.4,0.1,0.71,0.3,0.93s0.47,0.34,0.81,0.34s0.61-0.11,0.79-0.33
			C64.38,9.42,64.47,9.1,64.47,8.69 M70.55,10.34h-0.53v-1.9c0-0.37-0.06-0.64-0.17-0.8s-0.3-0.24-0.57-0.24
			c-0.23,0-0.42,0.1-0.58,0.31s-0.24,0.45-0.24,0.74v1.89h-0.53V8.37c0-0.65-0.25-0.97-0.75-0.97c-0.23,0-0.43,0.1-0.58,0.29
			c-0.15,0.2-0.23,0.45-0.23,0.76v1.89h-0.53V7.02h0.53v0.52h0.01c0.24-0.4,0.58-0.6,1.03-0.6c0.21,0,0.41,0.06,0.58,0.18
			s0.29,0.29,0.36,0.51c0.25-0.46,0.61-0.69,1.1-0.69c0.73,0,1.09,0.45,1.09,1.35v2.05H70.55z"/>
		<path class="st0" d="M35.03,13.32l-1.95,6.92h-0.95l-1.42-5.06c-0.05-0.19-0.09-0.42-0.11-0.7h-0.02
			c-0.03,0.24-0.07,0.47-0.13,0.69l-1.43,5.07h-0.94l-2.02-6.92h0.89l1.47,5.3c0.06,0.23,0.1,0.47,0.12,0.69h0.02
			c0.01-0.2,0.06-0.43,0.14-0.69l1.53-5.3h0.78l1.46,5.34c0.05,0.2,0.09,0.41,0.12,0.64h0.02c0.02-0.17,0.06-0.39,0.13-0.66
			l1.41-5.32H35.03z M36.6,13.67c0,0.15-0.05,0.27-0.15,0.37c-0.1,0.1-0.22,0.15-0.37,0.15c-0.14,0-0.27-0.05-0.37-0.14
			c-0.1-0.1-0.15-0.22-0.15-0.37c0-0.14,0.05-0.26,0.15-0.36c0.1-0.1,0.22-0.15,0.37-0.15c0.15,0,0.27,0.05,0.37,0.15
			C36.55,13.41,36.6,13.53,36.6,13.67 M36.47,20.23h-0.79v-4.94h0.79V20.23z M41.76,20.23h-0.79v-2.82c0-1.04-0.38-1.57-1.15-1.57
			c-0.39,0-0.72,0.15-0.98,0.44c-0.26,0.29-0.39,0.67-0.39,1.13v2.82h-0.79v-4.94h0.79v0.82h0.02c0.37-0.63,0.91-0.94,1.62-0.94
			c0.54,0,0.96,0.18,1.24,0.53c0.28,0.35,0.43,0.86,0.43,1.5V20.23z M47.25,20.23h-0.79v-0.84h-0.02c-0.37,0.64-0.93,0.96-1.7,0.96
			c-0.62,0-1.12-0.22-1.49-0.67c-0.37-0.45-0.55-1.05-0.55-1.8c0-0.82,0.21-1.47,0.61-1.97c0.41-0.49,0.96-0.74,1.65-0.74
			c0.67,0,1.17,0.27,1.48,0.8h0.02v-3.05h0.79V20.23z M46.46,18v-0.73c0-0.41-0.14-0.75-0.41-1.02c-0.27-0.27-0.6-0.41-0.99-0.41
			c-0.48,0-0.85,0.18-1.13,0.53c-0.28,0.35-0.42,0.84-0.42,1.46c0,0.57,0.13,1.01,0.4,1.34c0.26,0.33,0.62,0.49,1.07,0.49
			c0.43,0,0.79-0.16,1.07-0.47C46.32,18.89,46.46,18.49,46.46,18 M53.09,17.75c0,0.78-0.22,1.42-0.67,1.89
			c-0.44,0.48-1.04,0.72-1.79,0.72c-0.73,0-1.31-0.23-1.75-0.7c-0.44-0.46-0.65-1.08-0.65-1.83c0-0.82,0.22-1.46,0.67-1.94
			c0.45-0.47,1.06-0.71,1.85-0.71c0.73,0,1.31,0.23,1.72,0.69C52.88,16.32,53.09,16.95,53.09,17.75 M52.28,17.77
			c0-0.62-0.14-1.09-0.41-1.43c-0.28-0.33-0.67-0.5-1.18-0.5c-0.51,0-0.91,0.17-1.21,0.51s-0.44,0.82-0.44,1.44
			c0,0.59,0.15,1.05,0.45,1.39c0.3,0.33,0.7,0.5,1.2,0.5c0.51,0,0.91-0.16,1.18-0.49C52.15,18.86,52.28,18.39,52.28,17.77
			 M60.29,15.3l-1.48,4.94h-0.82l-1.02-3.53c-0.03-0.12-0.06-0.27-0.08-0.45h-0.02c-0.01,0.11-0.04,0.26-0.1,0.44l-1.1,3.54h-0.79
			l-1.49-4.94h0.83l1.02,3.71c0.03,0.13,0.05,0.28,0.07,0.44h0.04c0.01-0.12,0.04-0.27,0.09-0.45l1.13-3.7h0.72l1.03,3.72
			c0.03,0.13,0.05,0.27,0.07,0.44h0.04c0.01-0.15,0.03-0.3,0.08-0.44l1.01-3.72C59.52,15.3,60.29,15.3,60.29,15.3z M63.66,18.91
			c0,0.43-0.16,0.78-0.49,1.04c-0.33,0.27-0.77,0.4-1.31,0.4c-0.47,0-0.87-0.1-1.23-0.3V19.2c0.39,0.32,0.82,0.47,1.28,0.47
			c0.63,0,0.94-0.23,0.94-0.69c0-0.19-0.06-0.34-0.18-0.46c-0.12-0.12-0.4-0.28-0.83-0.47c-0.44-0.19-0.75-0.39-0.93-0.6
			c-0.18-0.21-0.27-0.5-0.27-0.85c0-0.41,0.16-0.75,0.49-1.02s0.74-0.41,1.25-0.41c0.39,0,0.74,0.08,1.06,0.23v0.8
			c-0.32-0.23-0.69-0.35-1.12-0.35c-0.26,0-0.47,0.07-0.63,0.19c-0.16,0.13-0.24,0.29-0.24,0.5c0,0.22,0.06,0.39,0.18,0.5
			c0.12,0.12,0.37,0.26,0.76,0.42c0.47,0.2,0.8,0.41,0.99,0.63C63.56,18.31,63.66,18.58,63.66,18.91"/>
		<path class="st0" d="M70.7,18.49c0,0.58-0.21,1.04-0.62,1.37c-0.41,0.33-0.97,0.5-1.68,0.5c-0.26,0-0.55-0.04-0.87-0.13
			c-0.32-0.08-0.55-0.18-0.69-0.27V19c0.2,0.18,0.45,0.32,0.77,0.44s0.62,0.18,0.9,0.18c0.89,0,1.33-0.35,1.33-1.04
			c0-0.29-0.09-0.54-0.28-0.75s-0.58-0.48-1.17-0.82c-0.57-0.32-0.97-0.63-1.2-0.92c-0.23-0.29-0.34-0.64-0.34-1.06
			c0-0.55,0.2-0.99,0.61-1.33s0.94-0.51,1.58-0.51c0.62,0,1.07,0.08,1.36,0.24v0.91c-0.36-0.28-0.83-0.42-1.4-0.42
			c-0.38,0-0.69,0.1-0.94,0.29c-0.24,0.19-0.37,0.44-0.37,0.76c0,0.23,0.04,0.41,0.11,0.55s0.19,0.28,0.37,0.41
			c0.17,0.13,0.46,0.32,0.87,0.55c0.61,0.34,1.04,0.66,1.28,0.96C70.57,17.75,70.7,18.1,70.7,18.49 M73.97,20.19
			c-0.19,0.11-0.44,0.16-0.74,0.16c-0.86,0-1.29-0.49-1.29-1.46v-2.92h-0.85V15.3h0.85v-1.21l0.79-0.26v1.46h1.24v0.67h-1.24v2.79
			c0,0.33,0.06,0.57,0.17,0.71s0.3,0.21,0.56,0.21c0.2,0,0.37-0.05,0.51-0.16V20.19z M79.42,17.75c0,0.78-0.22,1.42-0.67,1.89
			c-0.45,0.48-1.04,0.72-1.79,0.72c-0.73,0-1.31-0.23-1.75-0.7c-0.44-0.46-0.65-1.08-0.65-1.83c0-0.82,0.22-1.46,0.67-1.94
			c0.45-0.47,1.06-0.71,1.85-0.71c0.73,0,1.31,0.23,1.72,0.69C79.21,16.32,79.42,16.95,79.42,17.75 M78.61,17.77
			c0-0.62-0.14-1.1-0.41-1.43c-0.27-0.33-0.67-0.5-1.18-0.5s-0.91,0.17-1.21,0.51c-0.3,0.34-0.44,0.82-0.44,1.44
			c0,0.59,0.15,1.05,0.45,1.39c0.3,0.33,0.7,0.5,1.2,0.5c0.51,0,0.91-0.16,1.18-0.49C78.47,18.86,78.61,18.39,78.61,17.77
			 M82.82,16.1c-0.14-0.11-0.34-0.16-0.6-0.16c-0.35,0-0.64,0.17-0.85,0.49c-0.22,0.33-0.33,0.76-0.33,1.29v2.52h-0.79V15.3h0.79
			v1.02h0.02c0.11-0.34,0.28-0.61,0.51-0.81c0.23-0.2,0.49-0.3,0.79-0.3c0.21,0,0.36,0.02,0.47,0.07v0.82
			C82.83,16.1,82.82,16.1,82.82,16.1z M87.59,17.96H84.1c0.01,0.56,0.16,0.98,0.44,1.28c0.28,0.29,0.67,0.44,1.17,0.44
			c0.56,0,1.07-0.18,1.53-0.54v0.74c-0.43,0.32-1,0.48-1.72,0.48c-0.7,0-1.25-0.23-1.65-0.68c-0.39-0.45-0.59-1.08-0.59-1.89
			c0-0.49,0.1-0.94,0.3-1.34c0.2-0.4,0.47-0.72,0.82-0.94c0.35-0.22,0.73-0.33,1.16-0.33c0.64,0,1.14,0.21,1.5,0.62
			c0.36,0.42,0.54,1,0.54,1.75v0.41H87.59z M86.78,17.29c-0.01-0.46-0.12-0.81-0.33-1.06c-0.21-0.25-0.52-0.38-0.9-0.38
			c-0.37,0-0.68,0.13-0.94,0.4c-0.26,0.26-0.42,0.61-0.49,1.05h2.66V17.29z"/>
	</g>
</g>
</svg>
